PathFileType	4	(X/Y/Z)	c:/Users/goper/Files/vsCode/490R/osim_files/C05/C05_Static.trc
DataRate	CameraRate	NumFrames	NumMarkers	Units                	OrigDataRate	OrigDataStartFrame	OrigNumFrames
250.00	250.00	5	36	mm	250.0	1611	1840
                Frame#	Time	LPSIS			LASIS			LTH1			LTH2			LTH3			LTH4			LLFE			LMFE			LSH1			LSH2			LSH3			LSH4			LLMAL			LMMAL			LCAL			LMTP5			LTOE			LMTP1			RPSIS			RASIS			RTH1			RTH2			RTH3			RTH4			RLFE			RMFE			RSH1			RSH2			RSH3			RSH4			RLMAL			RMMAL			RCAL			RMTP1			RTOE			RMTP5		
		X1	Y1	Z1	X2	Y2	Z2	X3	Y3	Z3	X4	Y4	Z4	X5	Y5	Z5	X6	Y6	Z6	X7	Y7	Z7	X8	Y8	Z8	X9	Y9	Z9	X10	Y10	Z10	X11	Y11	Z11	X12	Y12	Z12	X13	Y13	Z13	X14	Y14	Z14	X15	Y15	Z15	X16	Y16	Z16	X17	Y17	Z17	X18	Y18	Z18	X19	Y19	Z19	X20	Y20	Z20	X21	Y21	Z21	X22	Y22	Z22	X23	Y23	Z23	X24	Y24	Z24	X25	Y25	Z25	X26	Y26	Z26	X27	Y27	Z27	X28	Y28	Z28	X29	Y29	Z29	X30	Y30	Z30	X31	Y31	Z31	X32	Y32	Z32	X33	Y33	Z33	X34	Y34	Z34	X35	Y35	Z35	X36	Y36	Z36

1611	6.44000	-428.49014	1062.62134	413.03177	-235.60509	1024.03918	347.86526	-374.80298	714.30005	279.74481	-369.97998	651.65820	282.69437	-298.11099	713.53564	275.85947	-303.54163	652.01331	279.91751	-336.04260	543.02460	289.95099	-337.67444	522.36475	407.65945	-437.62698	370.02756	276.97113	-431.98148	326.90002	276.48099	-376.05240	370.65088	258.06818	-381.50381	327.34970	262.05127	-396.33286	97.20467	287.46756	-360.08734	108.27206	367.47141	-447.76962	68.38091	343.32138	-262.14456	40.93367	237.87294	-216.61961	65.42303	292.33334	-224.31918	45.54371	341.49442	-420.93384	1067.05237	520.66168	-227.94260	1026.47766	579.19928	-363.94183	717.04346	657.28833	-363.77039	654.14429	654.00256	-289.35687	710.50928	663.01593	-300.13937	648.39520	659.87463	-316.99918	535.50372	644.81683	-343.27606	507.02304	540.67377	-401.65579	386.03268	680.56110	-397.93509	338.15033	678.98035	-341.76724	382.34772	673.60968	-346.89746	335.83975	672.12701	-377.27332	96.27708	649.19879	-364.80228	109.45340	564.19891	-445.53494	68.29919	608.22247	-232.87529	41.15245	557.89130	-208.19040	64.46471	603.63812	-249.85696	34.12687	672.66858
1612	6.44400	-428.49591	1062.61194	413.03900	-235.58461	1024.03430	347.87262	-374.82343	714.27545	279.78445	-369.95319	651.65997	282.69257	-298.10925	713.50659	275.86862	-303.53369	651.98730	279.90930	-336.03363	542.99762	289.95963	-337.67026	522.34491	407.65698	-437.63763	370.01810	276.97897	-432.06503	326.79388	276.53891	-376.05209	370.62109	258.07278	-381.52679	327.31888	262.06201	-396.33920	97.18168	287.46091	-360.05072	108.27082	367.45844	-447.80707	68.40439	343.28482	-262.15128	40.90815	237.88614	-216.61719	65.39104	292.31604	-224.18498	45.48324	341.42932	-420.90634	1067.05823	520.66522	-227.90379	1026.47290	579.19238	-363.94174	717.05298	657.29102	-363.81332	654.14435	653.96320	-289.33582	710.50293	662.99524	-300.12677	648.39587	659.83252	-316.97662	535.50305	644.80865	-343.26205	507.02859	540.67169	-401.66083	386.02563	680.54456	-397.92612	338.12964	678.97223	-341.75119	382.33923	673.59845	-346.90118	335.81830	672.11969	-377.28897	96.26376	649.17261	-364.77695	109.43107	564.19867	-445.54398	68.30949	608.20154	-232.87833	41.10995	557.88556	-207.84869	64.03938	603.88702	-249.83289	34.12672	672.65601
1613	6.44800	-428.47314	1062.61060	413.05325	-235.56273	1024.04749	347.86359	-374.80780	714.26111	279.79367	-369.96371	651.64111	282.72443	-298.09360	713.50488	275.91376	-303.55679	651.94952	279.92297	-336.02588	542.97766	289.95660	-337.62192	522.35083	407.66977	-437.63760	370.01709	276.98105	-431.98605	326.85202	276.48907	-376.06073	370.58636	258.08374	-381.51547	327.30017	262.07016	-396.33118	97.15662	287.45966	-360.03561	108.29730	367.43774	-447.81949	68.44293	343.27020	-262.14105	40.92173	237.86139	-216.61282	65.39799	292.29947	-224.15912	45.55952	341.31580	-420.91797	1067.07812	520.66125	-227.87872	1026.48059	579.18195	-363.94077	717.06830	657.27356	-364.38553	654.02423	654.29730	-289.30411	710.54413	663.00543	-300.12366	648.41870	659.87170	-316.93982	535.52563	644.78534	-343.24646	507.03491	540.67090	-401.65680	386.02930	680.54071	-397.95999	338.14627	678.97247	-341.73163	382.35828	673.58539	-346.86337	335.84656	672.09723	-377.25928	96.27360	649.16290	-364.77258	109.39484	564.20996	-445.51559	68.29700	608.21210	-232.86902	41.08828	557.90051	-207.84706	64.02970	603.88031	-249.83551	34.13644	672.64404
1614	6.45200	-428.40924	1062.60706	413.06940	-235.51535	1024.07349	347.84393	-374.82004	714.26752	279.81577	-369.97006	651.62286	282.75119	-298.10483	713.45502	275.88797	-303.52310	651.95892	279.94879	-336.02914	542.96252	289.96979	-337.59329	522.36115	407.67520	-437.61502	370.00858	276.97995	-432.03787	326.79633	276.54718	-376.03586	370.59134	258.09348	-381.50790	327.31604	262.06726	-396.31494	97.15381	287.45618	-360.01221	108.32511	367.42380	-447.89890	68.48860	343.25369	-262.12360	40.95435	237.85172	-216.60780	65.41422	292.27795	-224.04594	45.66294	341.26117	-420.93884	1067.11487	520.64832	-227.84480	1026.50378	579.17279	-363.98544	717.10797	657.25250	-363.83755	654.19891	653.92810	-289.31061	710.58191	662.99304	-300.11206	648.44916	659.85797	-316.92331	535.54254	644.78479	-343.22940	507.04190	540.67120	-401.68231	386.09036	680.52594	-397.96783	338.18207	678.95911	-341.70505	382.37408	673.59174	-346.83627	335.87537	672.09247	-377.29663	96.27597	649.15033	-364.77222	109.40029	564.22174	-445.54541	68.32797	608.18787	-232.88127	41.08133	557.90723	-207.72284	64.63327	603.18420	-249.82489	34.15387	672.64978
1615	6.45600	-428.41052	1062.60059	413.07288	-235.49866	1024.10120	347.85172	-374.78131	714.27722	279.82629	-369.97098	651.63641	282.77359	-298.05438	713.48206	275.90930	-303.49692	651.96515	279.93726	-336.00620	542.96167	289.97000	-337.59995	522.35541	407.65222	-437.62250	370.02850	277.00906	-432.04440	326.81448	276.60077	-376.02048	370.61914	258.09372	-381.48798	327.33365	262.07169	-396.30795	97.16132	287.47504	-359.99789	108.33932	367.41959	-447.89041	68.51688	343.23544	-262.07584	41.00616	237.85564	-216.61021	65.43763	292.25974	-223.97519	45.73834	341.15054	-420.95111	1067.16565	520.63635	-227.80995	1026.55725	579.18073	-363.99414	717.13080	657.24182	-363.85892	654.22473	653.90771	-289.30276	710.60144	662.97473	-300.13965	648.45441	659.84247	-316.91422	535.57880	644.78186	-343.21115	507.04947	540.67267	-401.70126	386.11688	680.49951	-397.99014	338.20309	678.95386	-341.68735	382.39383	673.57153	-346.80527	335.91953	672.07422	-377.29010	96.30673	649.15723	-364.75381	109.42404	564.21149	-445.57547	68.37993	608.18164	-232.85471	41.10603	557.90094	-208.07547	64.54864	603.58643	-249.93512	34.00241	672.52789
